<?xml version="1.0" encoding="utf-8"?>
<!-- Generator: Adobe Illustrator 26.5.0, SVG Export Plug-In . SVG Version: 6.00 Build 0)  -->
<svg version="1.1" id="Layer_1" xmlns="http://www.w3.org/2000/svg" xmlns:xlink="http://www.w3.org/1999/xlink" x="0px" y="0px"
	 viewBox="0 0 83.9 21" style="enable-background:new 0 0 83.9 21;" xml:space="preserve">
<style type="text/css">
	.st0{fill:#FFFFFF;}
</style>
<g>
	<path class="st0" d="M6.9,21c-1.6,0-3-0.4-4.2-1.1s-2-1.8-2.4-3.1l3-1.4c0.4,0.8,0.9,1.4,1.5,1.9S6.2,18,7,18c0.6,0,1-0.1,1.3-0.4
		c0.3-0.2,0.5-0.6,0.5-1c0-0.2-0.1-0.4-0.2-0.6S8.2,15.7,8,15.5c-0.3-0.1-0.5-0.3-0.8-0.3l-2.5-0.7c-1.2-0.3-2.1-0.9-2.8-1.7
		s-1-1.7-1-2.7c0-0.9,0.2-1.7,0.7-2.4s1.1-1.2,2-1.6s1.8-0.6,2.9-0.6c1.4,0,2.7,0.3,3.8,1s1.9,1.6,2.3,2.9l-3,1.4
		C9.4,10.2,9,9.7,8.5,9.3s-1.3-0.5-2-0.5C6,8.8,5.6,8.9,5.3,9.1C5,9.3,4.8,9.6,4.8,10c0,0.2,0.1,0.4,0.2,0.5
		c0.1,0.2,0.3,0.3,0.5,0.4s0.5,0.2,0.9,0.4L8.8,12c1.2,0.4,2.2,0.9,2.8,1.6c0.6,0.7,1,1.6,1,2.7c0,0.9-0.2,1.7-0.7,2.4
		c-0.5,0.7-1.1,1.2-2,1.6C9,20.8,8,21,6.9,21z M15,20.6V0.2h4.1v13.1l-1.5-0.5l6.5-6.9h5l-5.4,6l5.3,8.8h-4.6L20,13.1l2.4-0.6
		l-4.5,4.9l1.2-2.4v5.5H15V20.6z M30.9,20.6V5.9H35v14.8h-4.1V20.6z M30.9,4.5v-4H35v4.1L30.9,4.5L30.9,4.5z M37.9,20.6V0.2H42v20.5
		h-4.1V20.6z M44.9,20.6V0.2H49v20.5h-4.1V20.6z M59.1,21c-1.6,0-2.9-0.3-4.1-1c-1.1-0.7-2.1-1.6-2.7-2.8c-0.6-1.2-0.9-2.5-0.9-3.9
		c0-1.5,0.3-2.8,1-3.9C53,8.1,53.9,7.2,55,6.5s2.4-1,3.8-1c1.2,0,2.2,0.2,3.1,0.6s1.7,0.9,2.3,1.6s1.1,1.5,1.4,2.3
		c0.3,0.9,0.5,1.8,0.5,2.9c0,0.3,0,0.6,0,0.9c0,0.3-0.1,0.5-0.1,0.7H54.9v-3h8.8l-1.9,1.4c0.2-0.8,0.2-1.5,0-2.1
		c-0.2-0.6-0.5-1.1-1-1.4S59.7,8.9,59,8.9s-1.3,0.2-1.8,0.5s-0.9,0.8-1.1,1.5c-0.3,0.7-0.4,1.5-0.3,2.4c-0.1,0.8,0,1.6,0.3,2.2
		s0.7,1.1,1.2,1.5c0.6,0.4,1.2,0.5,2,0.5c0.7,0,1.3-0.1,1.9-0.4c0.5-0.3,0.9-0.7,1.2-1.2l3.2,1.5c-0.3,0.7-0.7,1.4-1.4,1.9
		c-0.6,0.5-1.4,1-2.2,1.3C61,20.8,60.1,21,59.1,21L59.1,21z M75.4,21c-1.4,0-2.7-0.3-3.9-1c-1.1-0.7-2.1-1.6-2.7-2.8
		c-0.7-1.2-1-2.5-1-3.9s0.3-2.7,1-3.9c0.6-1.1,1.6-2.1,2.7-2.8s2.4-1,3.8-1c1.1,0,2,0.2,2.9,0.6c0.8,0.4,1.5,1,2,1.7l-0.6,0.8V0.2
		h4.1v20.5h-3.8V18l0.4,0.8c-0.5,0.7-1.2,1.3-2.1,1.6C77.4,20.8,76.4,21,75.4,21L75.4,21z M75.9,17.3c0.7,0,1.4-0.2,1.9-0.5
		c0.6-0.3,1-0.8,1.3-1.4c0.3-0.6,0.5-1.3,0.5-2.1s-0.2-1.5-0.5-2.1s-0.7-1.1-1.3-1.4c-0.6-0.3-1.2-0.5-1.9-0.5c-0.7,0-1.4,0.2-2,0.5
		s-1.1,0.8-1.4,1.4c-0.3,0.6-0.5,1.3-0.5,2.1s0.2,1.5,0.5,2.1s0.8,1.1,1.4,1.4C74.5,17.1,75.2,17.3,75.9,17.3z"/>
</g>
</svg>
